# xmcd CD database file
#
# Track frame offsets:
#	150
#	36095
#	52720
#	83238
#	107342
#	166144
#
# Disc length: 2743 seconds
#
# Revision: 0
# Processed by: cddbd v1.5.2PL0 Copyright (c) Steve Scherf et al.
# Submitted via: CDex 1.70beta2
#
DISCID=360ab506
DTITLE=Multiwitamina - Live at Gdynia Summer Jazz Days 2004
DYEAR=2007
DGENRE=Jazz
TTITLE0=Multiwitamina
TTITLE1=Fors
TTITLE2=Smile of Green Tara
TTITLE3=Wyścig Pokoju
TTITLE4=Bananowiec
TTITLE5=Budda spokojnie kroczący po Jowiszu
EXTD=YEAR: 2007
EXTT0=
EXTT1=
EXTT2=
EXTT3=
EXTT4=
EXTT5=
PLAYORDER=
